<?xml version="1.0" encoding="utf-8"?>
<!-- Generator: Adobe Illustrator 23.1.0, SVG Export Plug-In . SVG Version: 6.00 Build 0)  -->
<svg version="1.1" id="Layer_1" xmlns="http://www.w3.org/2000/svg" xmlns:xlink="http://www.w3.org/1999/xlink" x="0px" y="0px"
	 viewBox="0 0 50.8 49.1" style="enable-background:new 0 0 50.8 49.1;" xml:space="preserve">
<style type="text/css">
	.st0{fill-rule:evenodd;clip-rule:evenodd;}
</style>
<path class="st0" d="M39.6,33.7v-4.4c2.4-1.4,4-4,4-6.9c0-4.4-3.6-8-8-8c-1.6,0-3.1,0.5-4.3,1.3c-1.2-5.3-6-9.3-11.7-9.3
	c-6.6,0-12,5.4-12,12c0,3.5,1.5,6.7,4,8.9v4.9c-4.8-2.8-8-7.9-8-13.8c0-8.8,7.2-16,16-16c6,0,11.2,3.3,14,8.2c0.7-0.1,1.3-0.2,2-0.2
	c6.6,0,12,5.4,12,12C47.6,27.6,44.3,32,39.6,33.7z M17.6,22.4c1.1,0,2,0.9,2,2v4c0,1.1-0.9,2-2,2c-1.1,0-2-0.9-2-2v-4
	C15.6,23.3,16.5,22.4,17.6,22.4z M17.6,34.4c1.1,0,2,0.9,2,2v4c0,1.1-0.9,2-2,2c-1.1,0-2-0.9-2-2v-4C15.6,35.2,16.5,34.4,17.6,34.4z
	 M25.6,26.4c1.1,0,2,0.9,2,2v4c0,1.1-0.9,2-2,2c-1.1,0-2-0.9-2-2v-4C23.6,27.3,24.5,26.4,25.6,26.4z M25.6,38.4c1.1,0,2,0.9,2,2v4
	c0,1.1-0.9,2-2,2c-1.1,0-2-0.9-2-2v-4C23.6,39.2,24.5,38.4,25.6,38.4z M33.6,22.4c1.1,0,2,0.9,2,2v4c0,1.1-0.9,2-2,2
	c-1.1,0-2-0.9-2-2v-4C31.6,23.3,32.5,22.4,33.6,22.4z M33.6,34.4c1.1,0,2,0.9,2,2v4c0,1.1-0.9,2-2,2c-1.1,0-2-0.9-2-2v-4
	C31.6,35.2,32.5,34.4,33.6,34.4z"/>
</svg>
