<?xml version="1.0" encoding="utf-8"?>
<!-- Generator: Adobe Illustrator 23.1.0, SVG Export Plug-In . SVG Version: 6.00 Build 0)  -->
<svg version="1.1" id="Layer_1" xmlns="http://www.w3.org/2000/svg" xmlns:xlink="http://www.w3.org/1999/xlink" x="0px" y="0px"
	 viewBox="0 0 48.2 50.9" style="enable-background:new 0 0 48.2 50.9;" xml:space="preserve">
<style type="text/css">
	.st0{fill-rule:evenodd;clip-rule:evenodd;}
</style>
<path class="st0" d="M36.1,33.3v-4.1c3.4-0.9,6-4,6-7.7c0-4.4-3.6-8-8-8c-1.6,0-3.1,0.5-4.3,1.3c-1.2-5.3-6-9.3-11.7-9.3
	c-6.6,0-12,5.4-12,12c0,4.4,2.4,8.3,6,10.4v4.4c-5.9-2.4-10-8.1-10-14.8c0-8.8,7.2-16,16-16c6,0,11.2,3.3,14,8.2
	c0.7-0.1,1.3-0.2,2-0.2c6.6,0,12,5.4,12,12C46.1,27.4,41.8,32.3,36.1,33.3z M17.2,27.5c0.6-1,1.8-1.3,2.7-0.7l2.2,1.3v-2.5
	c0-1.1,0.9-2,2-2s2,0.9,2,2V28l2.2-1.3c1-0.6,2.2-0.2,2.7,0.7c0.6,1,0.2,2.2-0.7,2.7l-2.2,1.3l2.2,1.3c1,0.6,1.3,1.8,0.7,2.7
	c-0.6,1-1.8,1.3-2.7,0.7l-2.2-1.3v2.5c0,1.1-0.9,2-2,2s-2-0.9-2-2v-2.5L20,36.2c-1,0.6-2.2,0.2-2.7-0.7c-0.6-1-0.2-2.2,0.7-2.7
	l2.2-1.3L18,30.2C17,29.6,16.7,28.4,17.2,27.5z M24.2,33.5c1.1,0,2-0.9,2-2c0-1.1-0.9-2-2-2s-2,0.9-2,2C22.2,32.6,23,33.5,24.2,33.5
	z"/>
<path d="M10.9,46.1L10.9,46.1c-1.2,0-2.2-1-2.2-2.2v-7.2c0-1.2,1-2.2,2.2-2.2h0c1.2,0,2.2,1,2.2,2.2v7.2
	C13.1,45.1,12.1,46.1,10.9,46.1z"/>
<path d="M37.2,46.1L37.2,46.1c-1.2,0-2.2-1-2.2-2.2v-7.2c0-1.2,1-2.2,2.2-2.2h0c1.2,0,2.2,1,2.2,2.2v7.2
	C39.4,45.1,38.4,46.1,37.2,46.1z"/>
<path d="M24.2,49.8L24.2,49.8c-1.2,0-2.2-1-2.2-2.2v-3.7c0-1.2,1-2.2,2.2-2.2h0c1.2,0,2.2,1,2.2,2.2v3.7
	C26.3,48.8,25.4,49.8,24.2,49.8z"/>
</svg>
