<?xml version="1.0" encoding="utf-8"?>
<!-- Generator: Adobe Illustrator 23.1.0, SVG Export Plug-In . SVG Version: 6.00 Build 0)  -->
<svg version="1.1" id="Layer_1" xmlns="http://www.w3.org/2000/svg" xmlns:xlink="http://www.w3.org/1999/xlink" x="0px" y="0px"
	 viewBox="0 0 60.2 57.1" style="enable-background:new 0 0 60.2 57.1;" xml:space="preserve">
<style type="text/css">
	.st0{fill-rule:evenodd;clip-rule:evenodd;}
</style>
<path class="st0" d="M55.1,31.5h-4c-1.1,0-2-0.9-2-2c0-1.1,0.9-2,2-2h4c1.1,0,2,0.9,2,2C57.1,30.6,56.3,31.5,55.1,31.5z M47.3,18.2
	c-0.8,0.8-2,0.8-2.8,0c-0.8-0.8-0.8-2,0-2.8l2.8-2.8c0.8-0.8,2-0.8,2.8,0c0.8,0.8,0.8,2,0,2.8L47.3,18.2z M44.3,33.8L44.3,33.8
	c1.7,2.1,2.8,4.8,2.8,7.7c0,6.6-5.4,12-12,12c-2.8,0-12.8,0-16,0c-8.8,0-16-7.2-16-16s7.2-16,16-16c1.6,0,3.1,0.2,4.5,0.7
	c2.2-2.8,5.6-4.7,9.5-4.7c6.6,0,12,5.4,12,12C45.1,31,44.9,32.5,44.3,33.8z M7.2,37.5c0,6.6,5.4,12,12,12c3.6,0,13,0,16,0
	c4.4,0,8-3.6,8-8c0-4.4-3.6-8-8-8c-1.6,0-3.1,0.5-4.3,1.3c-1.2-5.3-6-9.3-11.7-9.3C12.5,25.5,7.2,30.9,7.2,37.5z M33.2,21.5
	c-2.2,0-4.2,0.9-5.7,2.3c2.3,1.4,4.3,3.5,5.6,5.9c0.7-0.1,1.3-0.2,2-0.2c2.1,0,4.1,0.6,5.9,1.5l0,0c0.1-0.5,0.2-1,0.2-1.5
	C41.2,25.1,37.6,21.5,33.2,21.5z M33.2,13.5c-1.1,0-2-0.9-2-2v-4c0-1.1,0.9-2,2-2c1.1,0,2,0.9,2,2v4C35.2,12.6,34.3,13.5,33.2,13.5z
	 M19,18.2l-2.8-2.8c-0.8-0.8-0.8-2,0-2.8c0.8-0.8,2-0.8,2.8,0l2.8,2.8c0.8,0.8,0.8,2,0,2.8C21.1,19,19.8,19,19,18.2z"/>
</svg>
