<?xml version="1.0" encoding="utf-8"?>
<!-- Generator: Adobe Illustrator 23.1.0, SVG Export Plug-In . SVG Version: 6.00 Build 0)  -->
<svg version="1.1" id="Layer_1" xmlns="http://www.w3.org/2000/svg" xmlns:xlink="http://www.w3.org/1999/xlink" x="0px" y="0px"
	 viewBox="0 0 48.9 49.8" style="enable-background:new 0 0 48.9 49.8;" xml:space="preserve">
<style type="text/css">
	.st0{fill-rule:evenodd;clip-rule:evenodd;}
</style>
<path class="st0" d="M39.6,32.8v-4.4c2.4-1.4,4-4,4-6.9c0-4.4-3.6-8-8-8c-1.6,0-3.1,0.5-4.3,1.3c-1.2-5.3-6-9.3-11.7-9.3
	c-6.6,0-12,5.4-12,12c0,3.5,1.6,6.7,4,8.9v4.9c-4.8-2.8-8-7.9-8-13.8c0-8.8,7.2-16,16-16c6,0,11.2,3.3,14,8.2c0.7-0.1,1.3-0.2,2-0.2
	c6.6,0,12,5.4,12,12C47.6,26.7,44.3,31.1,39.6,32.8z M17.6,21.5c1.1,0,2,0.9,2,2v16c0,1.1-0.9,2-2,2s-2-0.9-2-2v-16
	C15.6,22.3,16.5,21.5,17.6,21.5z M25.6,25.5c1.1,0,2,0.9,2,2v16c0,1.1-0.9,2-2,2s-2-0.9-2-2v-16C23.6,26.3,24.5,25.5,25.6,25.5z
	 M33.6,21.5c1.1,0,2,0.9,2,2v16c0,1.1-0.9,2-2,2s-2-0.9-2-2v-16C31.6,22.3,32.5,21.5,33.6,21.5z"/>
</svg>
